<?xml version="1.0" encoding="UTF-8" standalone="no"?>
<!-- Generator: Adobe Illustrator 16.0.0, SVG Export Plug-In . SVG Version: 6.00 Build 0)  -->

<svg
   version="1.1"
   id="Calque_1"
   x="0px"
   y="0px"
   width="500"
   height="500"
   viewBox="0 0 499.99998 499.99999"
   enable-background="new 0 0 1700.79 1700.79"
   xml:space="preserve"
   sodipodi:docname="LOGO_square_lightblue.svg"
   inkscape:version="1.4.2 (ebf0e940, 2025-05-08)"
   inkscape:export-filename="LOGO_square_blue.png"
   inkscape:export-xdpi="96"
   inkscape:export-ydpi="96"
   xmlns:inkscape="http://www.inkscape.org/namespaces/inkscape"
   xmlns:sodipodi="http://sodipodi.sourceforge.net/DTD/sodipodi-0.dtd"
   xmlns="http://www.w3.org/2000/svg"
   xmlns:svg="http://www.w3.org/2000/svg"><defs
   id="defs9" /><sodipodi:namedview
   id="namedview9"
   pagecolor="#ffffff"
   bordercolor="#000000"
   borderopacity="0.25"
   inkscape:showpageshadow="2"
   inkscape:pageopacity="0.0"
   inkscape:pagecheckerboard="0"
   inkscape:deskcolor="#d1d1d1"
   showgrid="true"
   inkscape:zoom="1.3836225"
   inkscape:cx="-63.962533"
   inkscape:cy="160.80976"
   inkscape:window-width="2560"
   inkscape:window-height="1332"
   inkscape:window-x="1080"
   inkscape:window-y="505"
   inkscape:window-maximized="0"
   inkscape:current-layer="Calque_1"><inkscape:grid
     id="grid9"
     units="px"
     originx="0"
     originy="0"
     spacingx="0.99999998"
     spacingy="0.99999998"
     empcolor="#0099e5"
     empopacity="0.30196078"
     color="#0099e5"
     opacity="0.14901961"
     empspacing="5"
     enabled="true"
     visible="true" /></sodipodi:namedview>
<path
   fill="none"
   stroke="#000000"
   stroke-width="9.4578"
   stroke-miterlimit="1"
   d="m 248.49791,276.21657 c -23.944,22.949 -57.293,37.057 -94.912,37.057 -75.260002,0 -132.726002,-55.737 -132.726002,-126.447 v -0.703 c 0,-70.705 58.171,-127.139999 133.420002,-127.139999 75.239,0 132.701,55.732999 132.701,126.447999 v 0.691 m -82.211,0.703 v -0.703 c 0,-28.913 -19.833,-55.039 -51.183,-55.039 -31.013,0 -50.518,25.785 -50.518,54.348 v 0.691 c 0,28.918 19.854,55.041 51.213,55.041 31.002,0 50.488,-25.774 50.488,-54.338 z"
   id="path1"
   style="stroke:#00fff3;stroke-opacity:1;fill:none;stroke-linejoin:round" />
<path
   d="m 110.06773,442.35449 -65.223537,11.90019 -28.713185,-96.1139 35.065228,-8.42727 20.509299,68.6524 32.025585,-7.69674 c 0,0 16.89089,26.78251 34.80442,26.87441"
   id="path2"
   style="stroke-width:0.994123;fill:#00fff2;stroke:#00fff3;stroke-opacity:1;fill-opacity:1"
   sodipodi:nodetypes="ccccccc" />
<path
   d="m 317.79263,334.13822 h 36.30532 v 37.2447 l 30.87462,-37.2447 h 42.20127 l -37.85485,43.21775 38.63171,56.29239 h -43.29074 l -21.25331,-31.56093 -9.3087,10.37789 v 21.18304 h -36.30532 z"
   id="path3"
   style="stroke-width:0.994123;fill:#00fff2;stroke:#00fff3;stroke-opacity:1;fill-opacity:1" />
<path
   d="m 439.82779,333.98026 h 36.30323 v 99.51014 h -36.30323 z"
   id="path4"
   style="stroke-width:0.994123;fill:#00fff2;stroke:#00fff3;stroke-opacity:1;fill-opacity:1" />


<g
   id="g8"
   transform="matrix(1.0385706,0,0,0.95157631,-712.93255,-426.26355)"
   style="fill:#0000ff">
	<path
   d="m 789.777,853.031 v -0.301 c 0,-30.322 24.947,-54.523 57.218,-54.523 32.263,0 56.91,23.9 56.91,54.227 v 0.297 c 0,30.327 -24.943,54.529 -57.209,54.529 -32.275,0 -56.919,-23.903 -56.919,-54.229 z m 78.871,0 v -0.301 c 0,-12.398 -8.508,-23.604 -21.952,-23.604 -13.296,0 -21.665,11.058 -21.665,23.307 v 0.297 c 0,12.4 8.516,23.605 21.964,23.605 13.293,10e-4 21.653,-11.054 21.653,-23.304 z"
   id="path7"
   style="fill:#00fff2;stroke:#00fff3;stroke-opacity:1;fill-opacity:1" />
	<path
   d="m 982.342,817.616 v -20.924 h -56.795 v 0.007 c -32.123,0.149 -56.917,24.288 -56.917,54.516 v 0.301 c 0,30.324 24.646,54.229 56.917,54.229 h 57.196 v -10.807 -20.194 -16.466 h -36.515 v 16.466 h -20.682 v 0.062 c -13.267,-0.168 -21.66,-11.283 -21.66,-23.59 v -0.297 c 0,-12.249 8.364,-23.306 21.66,-23.306 h 20.729 v 17.398 h 36.467 z"
   id="path8"
   style="fill:#00fff2;stroke:#00fff3;stroke-opacity:1;fill-opacity:1" />
</g>
<path
   fill="none"
   stroke="#000000"
   stroke-width="9.4578"
   stroke-miterlimit="1"
   d="m 204.72891,182.58957 v 0.701 c 0,70.713 57.469,126.445 132.72201,126.445 h 133.385 v -25.2 -47.074 -38.403 h -85.159 v 38.403 h -48.226 v 0.137 c -30.937,-0.391 -50.51101,-26.312 -50.51101,-55.008 v -0.693 c 0,-28.562 19.51101,-54.345 50.51101,-54.345 h 48.344 v 40.566 h 85.041 l -0.22526,-64.59774 V 54.728831 l -133.15974,0.72274 v 0.015 c -36.79001,0.172 -69.45701,13.838 -93.17601,36.052"
   id="path9"
   sodipodi:nodetypes="cssccccccccssscccccccc"
   style="stroke:#00fff3;stroke-opacity:1;fill:none;stroke-linejoin:round" />
</svg>
